<svg xmlns="http://www.w3.org/2000/svg" viewBox="0 0 128 128" width="128" height="128" role="img" aria-hidden="true">
  <defs>
    <radialGradient id="contact">
      <stop offset="0%" stop-color="#000" stop-opacity="0.62"/>
      <stop offset="55%" stop-color="#000" stop-opacity="0.24"/>
      <stop offset="100%" stop-color="#000" stop-opacity="0"/>
    </radialGradient>
    <filter id="soften" x="-40%" y="-60%" width="180%" height="220%">
      <feGaussianBlur stdDeviation="2.2"/>
    </filter>
    <linearGradient id="gr1b2229" x1="0" y1="0" x2="0.25" y2="1"><stop offset="0" stop-color="#1f2730"/><stop offset="1" stop-color="#101418"/></linearGradient>
    <linearGradient id="gl333d47" x1="0" y1="0" x2="0.25" y2="1"><stop offset="0" stop-color="#3d4955"/><stop offset="1" stop-color="#20262c"/></linearGradient>
    <linearGradient id="gt5b6774" x1="0" y1="0" x2="0.85" y2="1"><stop offset="0" stop-color="#7a8a9b"/><stop offset="1" stop-color="#434c56"/></linearGradient>
    <linearGradient id="gr42201e" x1="0" y1="0" x2="0.25" y2="1"><stop offset="0" stop-color="#4d2523"/><stop offset="1" stop-color="#261311"/></linearGradient>
    <linearGradient id="gl66302e" x1="0" y1="0" x2="0.25" y2="1"><stop offset="0" stop-color="#7a3a37"/><stop offset="1" stop-color="#3f1e1d"/></linearGradient>
    <linearGradient id="gt8a4744" x1="0" y1="0" x2="0.85" y2="1"><stop offset="0" stop-color="#b95f5b"/><stop offset="1" stop-color="#663532"/></linearGradient>
  </defs>
  <ellipse cx="66.50" cy="82.00" rx="13.5" ry="6.0" fill="url(#contact)" filter="url(#soften)"/><polygon points="66.10,78.53 61.06,81.05 61.06,72.13 66.10,69.61" fill="url(#gr1b2229)"/><polygon points="58.75,79.89 61.06,81.05 61.06,72.13 58.75,70.97" fill="url(#gl333d47)"/><polygon points="63.79,68.45 66.10,69.61 61.06,72.13 58.75,70.97" fill="url(#gt5b6774)"/><polyline points="66.10,69.61 63.79,68.45 58.75,70.97" fill="none" stroke="#dfe4ea" stroke-width="0.7" stroke-linejoin="round" opacity="0.26"/><line x1="66.10" y1="78.53" x2="66.10" y2="69.61" stroke="#000" stroke-width="0.9" opacity="0.3"/><polygon points="69.25,80.11 64.21,82.63 64.21,73.70 69.25,71.18" fill="url(#gr1b2229)"/><polygon points="61.90,81.47 64.21,82.63 64.21,73.70 61.90,72.55" fill="url(#gl333d47)"/><polygon points="66.94,70.03 69.25,71.18 64.21,73.70 61.90,72.55" fill="url(#gt5b6774)"/><polyline points="69.25,71.18 66.94,70.03 61.90,72.55" fill="none" stroke="#dfe4ea" stroke-width="0.7" stroke-linejoin="round" opacity="0.26"/><line x1="69.25" y1="80.11" x2="69.25" y2="71.18" stroke="#000" stroke-width="0.9" opacity="0.3"/><polygon points="71.14,71.08 64.00,74.64 64.00,66.77 71.14,63.20" fill="url(#gr42201e)"/><polygon points="56.86,71.08 64.00,74.64 64.00,66.77 56.86,63.20" fill="url(#gl66302e)"/><polygon points="64.00,59.63 71.14,63.20 64.00,66.77 56.86,63.20" fill="url(#gt8a4744)"/><polyline points="71.14,63.20 64.00,59.63 56.86,63.20" fill="none" stroke="#dfe4ea" stroke-width="0.7" stroke-linejoin="round" opacity="0.26"/><line x1="71.14" y1="71.08" x2="71.14" y2="63.20" stroke="#000" stroke-width="0.9" opacity="0.3"/><polygon points="68.62,63.20 64.00,65.51 64.00,61.84 68.62,59.52" fill="url(#gr1b2229)"/><polygon points="59.38,63.20 64.00,65.51 64.00,61.84 59.38,59.52" fill="url(#gl333d47)"/><polygon points="64.00,57.21 68.62,59.52 64.00,61.84 59.38,59.52" fill="url(#gt5b6774)"/><polyline points="68.62,59.52 64.00,57.21 59.38,59.52" fill="none" stroke="#dfe4ea" stroke-width="0.7" stroke-linejoin="round" opacity="0.26"/><line x1="68.62" y1="63.20" x2="68.62" y2="59.52" stroke="#000" stroke-width="0.9" opacity="0.3"/>
</svg>
